<svg viewBox="0 0 1100 850" xmlns="http://www.w3.org/2000/svg" preserveAspectRatio="xMidYMid meet" font-family="-apple-system, BlinkMacSystemFont, Helvetica Neue, Arial, sans-serif">
<rect width="1100" height="850" fill="#FAFAF7"/>
<text x="550.0" y="36" text-anchor="middle" font-size="26" font-weight="700" fill="#1A1F2C" letter-spacing="0.5">The Stripe API · Subway Map</text>
<text x="550.0" y="58" text-anchor="middle" font-size="11" fill="#5A6275" letter-spacing="1.5" font-weight="500">57 APIs · 9 functional lines · interchange stations link related domains</text>
<g opacity="0.05" stroke="#000" stroke-width="0.5">
<line x1="170" y1="95" x2="170" y2="810"/>
<line x1="210" y1="95" x2="210" y2="810"/>
<line x1="250" y1="95" x2="250" y2="810"/>
<line x1="290" y1="95" x2="290" y2="810"/>
<line x1="330" y1="95" x2="330" y2="810"/>
<line x1="370" y1="95" x2="370" y2="810"/>
<line x1="410" y1="95" x2="410" y2="810"/>
<line x1="450" y1="95" x2="450" y2="810"/>
<line x1="490" y1="95" x2="490" y2="810"/>
<line x1="530" y1="95" x2="530" y2="810"/>
<line x1="570" y1="95" x2="570" y2="810"/>
<line x1="610" y1="95" x2="610" y2="810"/>
<line x1="650" y1="95" x2="650" y2="810"/>
<line x1="690" y1="95" x2="690" y2="810"/>
<line x1="730" y1="95" x2="730" y2="810"/>
<line x1="770" y1="95" x2="770" y2="810"/>
<line x1="810" y1="95" x2="810" y2="810"/>
<line x1="850" y1="95" x2="850" y2="810"/>
<line x1="890" y1="95" x2="890" y2="810"/>
<line x1="930" y1="95" x2="930" y2="810"/>
<line x1="970" y1="95" x2="970" y2="810"/>
<line x1="1010" y1="95" x2="1010" y2="810"/>
</g>
<g>
<line x1="210.0" y1="452.5" x2="210.0" y2="525.2777777777778" stroke="#1A1F2C" stroke-width="2.5" stroke-linecap="round" opacity="0.55" />
<line x1="210.0" y1="234.16666666666669" x2="210.0" y2="306.94444444444446" stroke="#1A1F2C" stroke-width="2.5" stroke-linecap="round" opacity="0.55" />
<line x1="1000.0" y1="234.16666666666669" x2="1000.0" y2="598.0555555555555" stroke="#1A1F2C" stroke-width="2.5" stroke-linecap="round" opacity="0.55" />
</g>
<line x1="210.0" y1="161.38888888888889" x2="1000.0" y2="161.38888888888889" stroke="#7B3FE4" stroke-width="9" stroke-linecap="round" />
<rect x="36" y="152.38888888888889" width="6" height="18" rx="3" fill="#7B3FE4"/>
<text x="50" y="159.38888888888889" font-size="11" font-weight="700" fill="#1A1F2C">Checkout &amp; Links</text>
<text x="50" y="173.38888888888889" font-size="9" fill="#5A6275">5 APIs</text>
<line x1="210.0" y1="234.16666666666669" x2="1000.0" y2="234.16666666666669" stroke="#E0245E" stroke-width="9" stroke-linecap="round" />
<rect x="36" y="225.16666666666669" width="6" height="18" rx="3" fill="#E0245E"/>
<text x="50" y="232.16666666666669" font-size="11" font-weight="700" fill="#1A1F2C">Payments</text>
<text x="50" y="246.16666666666669" font-size="9" fill="#5A6275">10 APIs</text>
<line x1="210.0" y1="306.94444444444446" x2="1000.0" y2="306.94444444444446" stroke="#0E9D6E" stroke-width="9" stroke-linecap="round" />
<rect x="36" y="297.94444444444446" width="6" height="18" rx="3" fill="#0E9D6E"/>
<text x="50" y="304.94444444444446" font-size="11" font-weight="700" fill="#1A1F2C">Billing — Core</text>
<text x="50" y="318.94444444444446" font-size="9" fill="#5A6275">8 APIs</text>
<line x1="210.0" y1="379.72222222222223" x2="1000.0" y2="379.72222222222223" stroke="#0B7956" stroke-width="9" stroke-linecap="round" />
<rect x="36" y="370.72222222222223" width="6" height="18" rx="3" fill="#0B7956"/>
<text x="50" y="377.72222222222223" font-size="11" font-weight="700" fill="#1A1F2C">Billing — Catalog &amp; Tax</text>
<text x="50" y="391.72222222222223" font-size="9" fill="#5A6275">8 APIs</text>
<line x1="210.0" y1="452.5" x2="1000.0" y2="452.5" stroke="#E68B1F" stroke-width="9" stroke-linecap="round" />
<rect x="36" y="443.5" width="6" height="18" rx="3" fill="#E68B1F"/>
<text x="50" y="450.5" font-size="11" font-weight="700" fill="#1A1F2C">Connect</text>
<text x="50" y="464.5" font-size="9" fill="#5A6275">8 APIs</text>
<line x1="210.0" y1="525.2777777777778" x2="1000.0" y2="525.2777777777778" stroke="#1E5BD0" stroke-width="9" stroke-linecap="round" />
<rect x="36" y="516.2777777777778" width="6" height="18" rx="3" fill="#1E5BD0"/>
<text x="50" y="523.2777777777778" font-size="11" font-weight="700" fill="#1A1F2C">Issuing &amp; Treasury</text>
<text x="50" y="537.2777777777778" font-size="9" fill="#5A6275">4 APIs</text>
<line x1="210.0" y1="598.0555555555555" x2="1000.0" y2="598.0555555555555" stroke="#C5318B" stroke-width="9" stroke-linecap="round" />
<rect x="36" y="589.0555555555555" width="6" height="18" rx="3" fill="#C5318B"/>
<text x="50" y="596.0555555555555" font-size="11" font-weight="700" fill="#1A1F2C">Risk &amp; Disputes</text>
<text x="50" y="610.0555555555555" font-size="9" fill="#5A6275">5 APIs</text>
<line x1="210.0" y1="670.8333333333334" x2="1000.0" y2="670.8333333333334" stroke="#5A6275" stroke-width="9" stroke-linecap="round" />
<rect x="36" y="661.8333333333334" width="6" height="18" rx="3" fill="#5A6275"/>
<text x="50" y="668.8333333333334" font-size="11" font-weight="700" fill="#1A1F2C">Reporting &amp; Data</text>
<text x="50" y="682.8333333333334" font-size="9" fill="#5A6275">8 APIs</text>
<line x1="210.0" y1="743.6111111111111" x2="1000.0" y2="743.6111111111111" stroke="#B89719" stroke-width="9" stroke-linecap="round" />
<rect x="36" y="734.6111111111111" width="6" height="18" rx="3" fill="#B89719"/>
<text x="50" y="741.6111111111111" font-size="11" font-weight="700" fill="#1A1F2C">Sustainability &amp; Edge</text>
<text x="50" y="755.6111111111111" font-size="9" fill="#5A6275">4 APIs</text>
<circle cx="210.0" cy="161.38888888888889" r="7" fill="#FFFFFF" stroke="#7B3FE4" stroke-width="2.5"><title>Crypto Onramp — Checkout &amp; Links line</title></circle>
<text x="210.0" y="146.38888888888889" font-size="10" fill="#1A1F2C" text-anchor="start" font-weight="600" transform="rotate(35 210.0 146.38888888888889)">Crypto Onramp</text>
<circle cx="407.5" cy="161.38888888888889" r="7" fill="#FFFFFF" stroke="#7B3FE4" stroke-width="2.5"><title>Link — Checkout &amp; Links line</title></circle>
<text x="407.5" y="180.38888888888889" font-size="10" fill="#1A1F2C" text-anchor="start" font-weight="600" transform="rotate(-35 407.5 180.38888888888889)">Link</text>
<circle cx="605.0" cy="161.38888888888889" r="7" fill="#FFFFFF" stroke="#7B3FE4" stroke-width="2.5"><title>Customer Portal — Checkout &amp; Links line</title></circle>
<text x="605.0" y="146.38888888888889" font-size="10" fill="#1A1F2C" text-anchor="start" font-weight="600" transform="rotate(35 605.0 146.38888888888889)">Customer Portal</text>
<circle cx="802.5" cy="161.38888888888889" r="7" fill="#FFFFFF" stroke="#7B3FE4" stroke-width="2.5"><title>Payment Links — Checkout &amp; Links line</title></circle>
<text x="802.5" y="180.38888888888889" font-size="10" fill="#1A1F2C" text-anchor="end" font-weight="600" transform="rotate(35 802.5 180.38888888888889)">Payment Links</text>
<circle cx="1000.0" cy="161.38888888888889" r="7" fill="#FFFFFF" stroke="#7B3FE4" stroke-width="2.5"><title>Checkout — Checkout &amp; Links line</title></circle>
<text x="1000.0" y="146.38888888888889" font-size="10" fill="#1A1F2C" text-anchor="end" font-weight="600" transform="rotate(-35 1000.0 146.38888888888889)">Checkout</text>
<circle cx="210.0" cy="234.16666666666669" r="11" fill="#FFFFFF" stroke="#1A1F2C" stroke-width="3.5"><title>Customers — interchange across: Payments, Billing — Core</title></circle>
<text x="210.0" y="215.16666666666669" font-size="10" fill="#1A1F2C" text-anchor="start" font-weight="700" transform="rotate(35 210.0 215.16666666666669)">Customers</text>
<circle cx="297.77777777777777" cy="234.16666666666669" r="7" fill="#FFFFFF" stroke="#E0245E" stroke-width="2.5"><title>Tokens — Payments line</title></circle>
<text x="297.77777777777777" y="253.16666666666669" font-size="10" fill="#1A1F2C" text-anchor="start" font-weight="600" transform="rotate(-35 297.77777777777777 253.16666666666669)">Tokens</text>
<circle cx="385.55555555555554" cy="234.16666666666669" r="7" fill="#FFFFFF" stroke="#E0245E" stroke-width="2.5"><title>Sources — Payments line</title></circle>
<text x="385.55555555555554" y="219.16666666666669" font-size="10" fill="#1A1F2C" text-anchor="start" font-weight="600" transform="rotate(35 385.55555555555554 219.16666666666669)">Sources</text>
<circle cx="473.3333333333333" cy="234.16666666666669" r="7" fill="#FFFFFF" stroke="#E0245E" stroke-width="2.5"><title>Apple Pay — Payments line</title></circle>
<text x="473.3333333333333" y="253.16666666666669" font-size="10" fill="#1A1F2C" text-anchor="start" font-weight="600" transform="rotate(-35 473.3333333333333 253.16666666666669)">Apple Pay</text>
<circle cx="561.1111111111111" cy="234.16666666666669" r="7" fill="#FFFFFF" stroke="#E0245E" stroke-width="2.5"><title>Payment Methods — Payments line</title></circle>
<text x="561.1111111111111" y="219.16666666666669" font-size="10" fill="#1A1F2C" text-anchor="start" font-weight="600" transform="rotate(35 561.1111111111111 219.16666666666669)">Payment Methods</text>
<circle cx="648.8888888888889" cy="234.16666666666669" r="7" fill="#FFFFFF" stroke="#E0245E" stroke-width="2.5"><title>Payment Method Configurations — Payments line</title></circle>
<text x="648.8888888888889" y="253.16666666666669" font-size="10" fill="#1A1F2C" text-anchor="end" font-weight="600" transform="rotate(35 648.8888888888889 253.16666666666669)">PM Configurations</text>
<circle cx="736.6666666666666" cy="234.16666666666669" r="7" fill="#FFFFFF" stroke="#E0245E" stroke-width="2.5"><title>Setup — Payments line</title></circle>
<text x="736.6666666666666" y="219.16666666666669" font-size="10" fill="#1A1F2C" text-anchor="end" font-weight="600" transform="rotate(-35 736.6666666666666 219.16666666666669)">Setup</text>
<circle cx="824.4444444444445" cy="234.16666666666669" r="7" fill="#FFFFFF" stroke="#E0245E" stroke-width="2.5"><title>Payment Intents — Payments line</title></circle>
<text x="824.4444444444445" y="253.16666666666669" font-size="10" fill="#1A1F2C" text-anchor="end" font-weight="600" transform="rotate(35 824.4444444444445 253.16666666666669)">Payment Intents</text>
<circle cx="912.2222222222222" cy="234.16666666666669" r="7" fill="#FFFFFF" stroke="#E0245E" stroke-width="2.5"><title>Charges — Payments line</title></circle>
<text x="912.2222222222222" y="219.16666666666669" font-size="10" fill="#1A1F2C" text-anchor="end" font-weight="600" transform="rotate(-35 912.2222222222222 219.16666666666669)">Charges</text>
<circle cx="1000.0" cy="234.16666666666669" r="11" fill="#FFFFFF" stroke="#1A1F2C" stroke-width="3.5"><title>Refunds — interchange across: Payments, Risk &amp; Disputes</title></circle>
<text x="1000.0" y="257.1666666666667" font-size="10" fill="#1A1F2C" text-anchor="end" font-weight="700" transform="rotate(35 1000.0 257.1666666666667)">Refunds</text>
<circle cx="210.0" cy="306.94444444444446" r="11" fill="#FFFFFF" stroke="#1A1F2C" stroke-width="3.5"><title>Customers — interchange across: Payments, Billing — Core</title></circle>
<circle cx="322.8571428571429" cy="306.94444444444446" r="7" fill="#FFFFFF" stroke="#0E9D6E" stroke-width="2.5"><title>Invoice — Billing — Core line</title></circle>
<text x="322.8571428571429" y="325.94444444444446" font-size="10" fill="#1A1F2C" text-anchor="start" font-weight="600" transform="rotate(-35 322.8571428571429 325.94444444444446)">Invoice</text>
<circle cx="435.7142857142857" cy="306.94444444444446" r="7" fill="#FFFFFF" stroke="#0E9D6E" stroke-width="2.5"><title>Subscription — Billing — Core line</title></circle>
<text x="435.7142857142857" y="291.94444444444446" font-size="10" fill="#1A1F2C" text-anchor="start" font-weight="600" transform="rotate(35 435.7142857142857 291.94444444444446)">Subscription</text>
<circle cx="548.5714285714286" cy="306.94444444444446" r="7" fill="#FFFFFF" stroke="#0E9D6E" stroke-width="2.5"><title>Plans — Billing — Core line</title></circle>
<text x="548.5714285714286" y="325.94444444444446" font-size="10" fill="#1A1F2C" text-anchor="start" font-weight="600" transform="rotate(-35 548.5714285714286 325.94444444444446)">Plans</text>
<circle cx="661.4285714285714" cy="306.94444444444446" r="7" fill="#FFFFFF" stroke="#0E9D6E" stroke-width="2.5"><title>Prices — Billing — Core line</title></circle>
<text x="661.4285714285714" y="291.94444444444446" font-size="10" fill="#1A1F2C" text-anchor="end" font-weight="600" transform="rotate(-35 661.4285714285714 291.94444444444446)">Prices</text>
<circle cx="774.2857142857143" cy="306.94444444444446" r="7" fill="#FFFFFF" stroke="#0E9D6E" stroke-width="2.5"><title>Products — Billing — Core line</title></circle>
<text x="774.2857142857143" y="325.94444444444446" font-size="10" fill="#1A1F2C" text-anchor="end" font-weight="600" transform="rotate(35 774.2857142857143 325.94444444444446)">Products</text>
<circle cx="887.1428571428571" cy="306.94444444444446" r="7" fill="#FFFFFF" stroke="#0E9D6E" stroke-width="2.5"><title>Billing — Billing — Core line</title></circle>
<text x="887.1428571428571" y="291.94444444444446" font-size="10" fill="#1A1F2C" text-anchor="end" font-weight="600" transform="rotate(-35 887.1428571428571 291.94444444444446)">Billing</text>
<circle cx="1000.0" cy="306.94444444444446" r="7" fill="#FFFFFF" stroke="#0E9D6E" stroke-width="2.5"><title>Billing Meters — Billing — Core line</title></circle>
<text x="1000.0" y="325.94444444444446" font-size="10" fill="#1A1F2C" text-anchor="end" font-weight="600" transform="rotate(35 1000.0 325.94444444444446)">Billing Meters</text>
<circle cx="210.0" cy="379.72222222222223" r="7" fill="#FFFFFF" stroke="#0B7956" stroke-width="2.5"><title>Coupons — Billing — Catalog &amp; Tax line</title></circle>
<text x="210.0" y="364.72222222222223" font-size="10" fill="#1A1F2C" text-anchor="start" font-weight="600" transform="rotate(35 210.0 364.72222222222223)">Coupons</text>
<circle cx="322.8571428571429" cy="379.72222222222223" r="7" fill="#FFFFFF" stroke="#0B7956" stroke-width="2.5"><title>Promotion Codes — Billing — Catalog &amp; Tax line</title></circle>
<text x="322.8571428571429" y="398.72222222222223" font-size="10" fill="#1A1F2C" text-anchor="start" font-weight="600" transform="rotate(-35 322.8571428571429 398.72222222222223)">Promotion Codes</text>
<circle cx="435.7142857142857" cy="379.72222222222223" r="7" fill="#FFFFFF" stroke="#0B7956" stroke-width="2.5"><title>Credit Notes — Billing — Catalog &amp; Tax line</title></circle>
<text x="435.7142857142857" y="364.72222222222223" font-size="10" fill="#1A1F2C" text-anchor="start" font-weight="600" transform="rotate(35 435.7142857142857 364.72222222222223)">Credit Notes</text>
<circle cx="548.5714285714286" cy="379.72222222222223" r="7" fill="#FFFFFF" stroke="#0B7956" stroke-width="2.5"><title>Quotes — Billing — Catalog &amp; Tax line</title></circle>
<text x="548.5714285714286" y="398.72222222222223" font-size="10" fill="#1A1F2C" text-anchor="start" font-weight="600" transform="rotate(-35 548.5714285714286 398.72222222222223)">Quotes</text>
<circle cx="661.4285714285714" cy="379.72222222222223" r="7" fill="#FFFFFF" stroke="#0B7956" stroke-width="2.5"><title>Shipping Rates — Billing — Catalog &amp; Tax line</title></circle>
<text x="661.4285714285714" y="364.72222222222223" font-size="10" fill="#1A1F2C" text-anchor="end" font-weight="600" transform="rotate(-35 661.4285714285714 364.72222222222223)">Shipping Rates</text>
<circle cx="774.2857142857143" cy="379.72222222222223" r="7" fill="#FFFFFF" stroke="#0B7956" stroke-width="2.5"><title>Tax — Billing — Catalog &amp; Tax line</title></circle>
<text x="774.2857142857143" y="398.72222222222223" font-size="10" fill="#1A1F2C" text-anchor="end" font-weight="600" transform="rotate(35 774.2857142857143 398.72222222222223)">Tax</text>
<circle cx="887.1428571428571" cy="379.72222222222223" r="7" fill="#FFFFFF" stroke="#0B7956" stroke-width="2.5"><title>Entitlements — Billing — Catalog &amp; Tax line</title></circle>
<text x="887.1428571428571" y="364.72222222222223" font-size="10" fill="#1A1F2C" text-anchor="end" font-weight="600" transform="rotate(-35 887.1428571428571 364.72222222222223)">Entitlements</text>
<circle cx="1000.0" cy="379.72222222222223" r="7" fill="#FFFFFF" stroke="#0B7956" stroke-width="2.5"><title>Revenue Recognition — Billing — Catalog &amp; Tax line</title></circle>
<text x="1000.0" y="398.72222222222223" font-size="10" fill="#1A1F2C" text-anchor="end" font-weight="600" transform="rotate(35 1000.0 398.72222222222223)">Revenue Recognition</text>
<circle cx="210.0" cy="452.5" r="11" fill="#FFFFFF" stroke="#1A1F2C" stroke-width="3.5"><title>Accounts — interchange across: Connect, Issuing &amp; Treasury</title></circle>
<text x="210.0" y="433.5" font-size="10" fill="#1A1F2C" text-anchor="start" font-weight="700" transform="rotate(35 210.0 433.5)">Accounts</text>
<circle cx="322.8571428571429" cy="452.5" r="7" fill="#FFFFFF" stroke="#E68B1F" stroke-width="2.5"><title>Connect — Connect line</title></circle>
<text x="322.8571428571429" y="471.5" font-size="10" fill="#1A1F2C" text-anchor="start" font-weight="600" transform="rotate(-35 322.8571428571429 471.5)">Connect</text>
<circle cx="435.7142857142857" cy="452.5" r="7" fill="#FFFFFF" stroke="#E68B1F" stroke-width="2.5"><title>Application Fees — Connect line</title></circle>
<text x="435.7142857142857" y="437.5" font-size="10" fill="#1A1F2C" text-anchor="start" font-weight="600" transform="rotate(35 435.7142857142857 437.5)">App Fees</text>
<circle cx="548.5714285714286" cy="452.5" r="7" fill="#FFFFFF" stroke="#E68B1F" stroke-width="2.5"><title>Application Secrets — Connect line</title></circle>
<text x="548.5714285714286" y="471.5" font-size="10" fill="#1A1F2C" text-anchor="start" font-weight="600" transform="rotate(-35 548.5714285714286 471.5)">App Secrets</text>
<circle cx="661.4285714285714" cy="452.5" r="7" fill="#FFFFFF" stroke="#E68B1F" stroke-width="2.5"><title>Transfers — Connect line</title></circle>
<text x="661.4285714285714" y="437.5" font-size="10" fill="#1A1F2C" text-anchor="end" font-weight="600" transform="rotate(-35 661.4285714285714 437.5)">Transfers</text>
<circle cx="774.2857142857143" cy="452.5" r="7" fill="#FFFFFF" stroke="#E68B1F" stroke-width="2.5"><title>Payouts — Connect line</title></circle>
<text x="774.2857142857143" y="471.5" font-size="10" fill="#1A1F2C" text-anchor="end" font-weight="600" transform="rotate(35 774.2857142857143 471.5)">Payouts</text>
<circle cx="887.1428571428571" cy="452.5" r="7" fill="#FFFFFF" stroke="#E68B1F" stroke-width="2.5"><title>Topups — Connect line</title></circle>
<text x="887.1428571428571" y="437.5" font-size="10" fill="#1A1F2C" text-anchor="end" font-weight="600" transform="rotate(-35 887.1428571428571 437.5)">Topups</text>
<circle cx="1000.0" cy="452.5" r="7" fill="#FFFFFF" stroke="#E68B1F" stroke-width="2.5"><title>Balance — Connect line</title></circle>
<text x="1000.0" y="471.5" font-size="10" fill="#1A1F2C" text-anchor="end" font-weight="600" transform="rotate(35 1000.0 471.5)">Balance</text>
<circle cx="210.0" cy="525.2777777777778" r="11" fill="#FFFFFF" stroke="#1A1F2C" stroke-width="3.5"><title>Accounts — interchange across: Connect, Issuing &amp; Treasury</title></circle>
<circle cx="473.3333333333333" cy="525.2777777777778" r="7" fill="#FFFFFF" stroke="#1E5BD0" stroke-width="2.5"><title>Issuing — Issuing &amp; Treasury line</title></circle>
<text x="473.3333333333333" y="544.2777777777778" font-size="10" fill="#1A1F2C" text-anchor="start" font-weight="600" transform="rotate(-35 473.3333333333333 544.2777777777778)">Issuing</text>
<circle cx="736.6666666666666" cy="525.2777777777778" r="7" fill="#FFFFFF" stroke="#1E5BD0" stroke-width="2.5"><title>Treasury — Issuing &amp; Treasury line</title></circle>
<text x="736.6666666666666" y="510.2777777777778" font-size="10" fill="#1A1F2C" text-anchor="end" font-weight="600" transform="rotate(-35 736.6666666666666 510.2777777777778)">Treasury</text>
<circle cx="1000.0" cy="525.2777777777778" r="7" fill="#FFFFFF" stroke="#1E5BD0" stroke-width="2.5"><title>Financial Connections — Issuing &amp; Treasury line</title></circle>
<text x="1000.0" y="544.2777777777778" font-size="10" fill="#1A1F2C" text-anchor="end" font-weight="600" transform="rotate(35 1000.0 544.2777777777778)">Financial Connections</text>
<circle cx="210.0" cy="598.0555555555555" r="7" fill="#FFFFFF" stroke="#C5318B" stroke-width="2.5"><title>Identity — Risk &amp; Disputes line</title></circle>
<text x="210.0" y="583.0555555555555" font-size="10" fill="#1A1F2C" text-anchor="start" font-weight="600" transform="rotate(35 210.0 583.0555555555555)">Identity</text>
<circle cx="407.5" cy="598.0555555555555" r="7" fill="#FFFFFF" stroke="#C5318B" stroke-width="2.5"><title>Radar — Risk &amp; Disputes line</title></circle>
<text x="407.5" y="617.0555555555555" font-size="10" fill="#1A1F2C" text-anchor="start" font-weight="600" transform="rotate(-35 407.5 617.0555555555555)">Radar</text>
<circle cx="605.0" cy="598.0555555555555" r="7" fill="#FFFFFF" stroke="#C5318B" stroke-width="2.5"><title>Reviews — Risk &amp; Disputes line</title></circle>
<text x="605.0" y="583.0555555555555" font-size="10" fill="#1A1F2C" text-anchor="start" font-weight="600" transform="rotate(35 605.0 583.0555555555555)">Reviews</text>
<circle cx="802.5" cy="598.0555555555555" r="7" fill="#FFFFFF" stroke="#C5318B" stroke-width="2.5"><title>Disputes — Risk &amp; Disputes line</title></circle>
<text x="802.5" y="617.0555555555555" font-size="10" fill="#1A1F2C" text-anchor="end" font-weight="600" transform="rotate(35 802.5 617.0555555555555)">Disputes</text>
<circle cx="1000.0" cy="598.0555555555555" r="11" fill="#FFFFFF" stroke="#1A1F2C" stroke-width="3.5"><title>Refunds — interchange across: Payments, Risk &amp; Disputes</title></circle>
<circle cx="210.0" cy="670.8333333333334" r="7" fill="#FFFFFF" stroke="#5A6275" stroke-width="2.5"><title>Sigma — Reporting &amp; Data line</title></circle>
<text x="210.0" y="655.8333333333334" font-size="10" fill="#1A1F2C" text-anchor="start" font-weight="600" transform="rotate(35 210.0 655.8333333333334)">Sigma</text>
<circle cx="322.8571428571429" cy="670.8333333333334" r="7" fill="#FFFFFF" stroke="#5A6275" stroke-width="2.5"><title>Reporting — Reporting &amp; Data line</title></circle>
<text x="322.8571428571429" y="689.8333333333334" font-size="10" fill="#1A1F2C" text-anchor="start" font-weight="600" transform="rotate(-35 322.8571428571429 689.8333333333334)">Reporting</text>
<circle cx="435.7142857142857" cy="670.8333333333334" r="7" fill="#FFFFFF" stroke="#5A6275" stroke-width="2.5"><title>Events — Reporting &amp; Data line</title></circle>
<text x="435.7142857142857" y="655.8333333333334" font-size="10" fill="#1A1F2C" text-anchor="start" font-weight="600" transform="rotate(35 435.7142857142857 655.8333333333334)">Events</text>
<circle cx="548.5714285714286" cy="670.8333333333334" r="7" fill="#FFFFFF" stroke="#5A6275" stroke-width="2.5"><title>Webhook — Reporting &amp; Data line</title></circle>
<text x="548.5714285714286" y="689.8333333333334" font-size="10" fill="#1A1F2C" text-anchor="start" font-weight="600" transform="rotate(-35 548.5714285714286 689.8333333333334)">Webhook</text>
<circle cx="661.4285714285714" cy="670.8333333333334" r="7" fill="#FFFFFF" stroke="#5A6275" stroke-width="2.5"><title>Files — Reporting &amp; Data line</title></circle>
<text x="661.4285714285714" y="655.8333333333334" font-size="10" fill="#1A1F2C" text-anchor="end" font-weight="600" transform="rotate(-35 661.4285714285714 655.8333333333334)">Files</text>
<circle cx="774.2857142857143" cy="670.8333333333334" r="7" fill="#FFFFFF" stroke="#5A6275" stroke-width="2.5"><title>Exchange Rates — Reporting &amp; Data line</title></circle>
<text x="774.2857142857143" y="689.8333333333334" font-size="10" fill="#1A1F2C" text-anchor="end" font-weight="600" transform="rotate(35 774.2857142857143 689.8333333333334)">Exchange Rates</text>
<circle cx="887.1428571428571" cy="670.8333333333334" r="7" fill="#FFFFFF" stroke="#5A6275" stroke-width="2.5"><title>Country — Reporting &amp; Data line</title></circle>
<text x="887.1428571428571" y="655.8333333333334" font-size="10" fill="#1A1F2C" text-anchor="end" font-weight="600" transform="rotate(-35 887.1428571428571 655.8333333333334)">Country</text>
<circle cx="1000.0" cy="670.8333333333334" r="7" fill="#FFFFFF" stroke="#5A6275" stroke-width="2.5"><title>Ephemeral Keys — Reporting &amp; Data line</title></circle>
<text x="1000.0" y="689.8333333333334" font-size="10" fill="#1A1F2C" text-anchor="end" font-weight="600" transform="rotate(35 1000.0 689.8333333333334)">Ephemeral Keys</text>
<circle cx="210.0" cy="743.6111111111111" r="7" fill="#FFFFFF" stroke="#B89719" stroke-width="2.5"><title>Climate — Sustainability &amp; Edge line</title></circle>
<text x="210.0" y="728.6111111111111" font-size="10" fill="#1A1F2C" text-anchor="start" font-weight="600" transform="rotate(35 210.0 728.6111111111111)">Climate</text>
<circle cx="473.3333333333333" cy="743.6111111111111" r="7" fill="#FFFFFF" stroke="#B89719" stroke-width="2.5"><title>Forwarding — Sustainability &amp; Edge line</title></circle>
<text x="473.3333333333333" y="762.6111111111111" font-size="10" fill="#1A1F2C" text-anchor="start" font-weight="600" transform="rotate(-35 473.3333333333333 762.6111111111111)">Forwarding</text>
<circle cx="736.6666666666666" cy="743.6111111111111" r="7" fill="#FFFFFF" stroke="#B89719" stroke-width="2.5"><title>Terminal — Sustainability &amp; Edge line</title></circle>
<text x="736.6666666666666" y="728.6111111111111" font-size="10" fill="#1A1F2C" text-anchor="end" font-weight="600" transform="rotate(-35 736.6666666666666 728.6111111111111)">Terminal</text>
<circle cx="1000.0" cy="743.6111111111111" r="7" fill="#FFFFFF" stroke="#B89719" stroke-width="2.5"><title>Test Helpers — Sustainability &amp; Edge line</title></circle>
<text x="1000.0" y="762.6111111111111" font-size="10" fill="#1A1F2C" text-anchor="end" font-weight="600" transform="rotate(35 1000.0 762.6111111111111)">Test Helpers</text>
<g transform="translate(0 815)">
<circle cx="44" cy="8" r="6" fill="#FFFFFF" stroke="#7B3FE4" stroke-width="2.5" />
<text x="58" y="12" font-size="10" fill="#1A1F2C">Station — single API endpoint group</text>
<circle cx="330" cy="8" r="9" fill="#FFFFFF" stroke="#1A1F2C" stroke-width="3" />
<text x="346" y="12" font-size="10" fill="#1A1F2C" font-weight="600">Interchange — API serves multiple lines (transfer connector shown)</text>
</g>
<text x="1070" y="838" text-anchor="end" font-size="8.5" fill="#8A92A6">Source: stripe/openapi/*-openapi.yml · github.com/api-evangelist/stripe</text>
</svg>